<svg width="508" height="493" viewBox="0 0 508 493" fill="none" xmlns="http://www.w3.org/2000/svg">
<path d="M218.6 348.149C267.563 332.161 298.978 320.05 334.734 319.629C334.734 319.629 385.663 326.19 406.738 319.629C468.359 300.409 473.726 230.414 440.457 178.739C406.007 125.225 344.006 140.496 344.006 140.496C269.796 154.125 220.286 139.092 194.392 126.573C173.641 116.57 148.563 120.293 132.574 136.844C128.973 140.415 126.154 144.697 124.299 149.418C101.525 211.784 127.755 272.731 137.112 309.949C140.568 323.745 169.623 364.138 218.6 348.149Z" stroke="#263238" stroke-width="1.34035" stroke-linecap="round" strokeLinejoin="round" stroke-dasharray="2.68 2.68"/>
<path d="M241.278 90.157C239.297 113.507 237.218 137.181 237.738 160.517C238.96 217.053 244.636 273.406 248.233 329.815C250.382 363.436 257.028 398.967 250.256 432.377C243.92 463.693 218.982 489.545 186.316 491.863C150.363 494.42 124.386 460.855 128.306 427.094C131.242 401.805 146.444 378.44 147.343 352.955C148.537 318.645 108.439 323.071 82.3775 300.971C51.7072 275.007 21.4303 240.488 12.5229 200.25C9.95183 188.687 9.2915 176.365 13.5766 165.252C32.9791 115.067 115.338 102.464 147.343 145.119C180.317 189.094 167.321 253.048 221.286 259.047C275.25 265.046 328.217 242.061 380.187 229.065C432.156 216.069 490.111 248.06 481.119 316.004C472.127 383.948 388.181 382.037 349.207 334.999C310.234 287.961 328.217 192.087 336.211 154.055C340.609 133.205 351.905 114.491 361.81 95.8892C369.607 81.2215 379.442 65.9074 376.913 48.5843C369.453 -2.48599 284.186 -16.929 258.264 27.1446C258.236 27.2008 245.072 45.3107 241.278 90.157Z" stroke="#263238" stroke-width="1.34035" stroke-linecap="round" strokeLinejoin="round" stroke-dasharray="2.68 2.68"/>
<rect x="202.27" y="196.123" width="99.8591" height="99.841" rx="49.9205" fill="#263238"/>
<path d="M293.869 245.936C293.877 248.603 293.632 251.21 293.159 253.738C291.341 263.472 284.706 271.678 275.571 275.504C275.533 275.519 275.494 275.536 275.456 275.551C268.263 278.542 262.315 278.707 259.143 276.003C255.895 273.232 255.893 267.736 256.182 264.705C256.522 261.141 257.566 257.152 259.221 253.002C261.068 248.369 263.768 244.131 267.054 240.38C267.342 240.051 267.627 239.721 267.912 239.387C272.263 234.286 276.01 228.896 279.047 223.364L268.684 217.68C266.034 222.506 262.748 227.23 258.917 231.72C248.171 244.316 234.737 252.954 224.691 253.732L225.604 265.514C231.608 265.049 238.324 262.734 245.139 258.794C244.805 260.424 244.564 262.026 244.414 263.59C244.004 267.907 244.317 271.858 245.35 275.329C246.523 279.279 248.583 282.53 251.474 284.995C252.674 286.02 254.003 286.883 255.438 287.58C254.369 287.661 253.289 287.703 252.199 287.703C229.188 287.703 210.531 269.05 210.531 246.044C210.531 223.039 229.357 204.217 252.513 204.386C275.268 204.553 293.812 223.187 293.869 245.936Z" fill="#F27D16"/>
<path d="M457.738 295.618C444.6 295.618 431.999 290.398 422.709 281.108C413.418 271.818 408.199 259.217 408.199 246.079C408.199 232.94 413.418 220.34 422.709 211.05C431.999 201.759 444.6 196.54 457.738 196.54C470.877 196.54 483.477 201.759 492.767 211.05C502.058 220.34 507.277 232.94 507.277 246.079C507.277 259.217 502.058 271.818 492.767 281.108C483.477 290.398 470.877 295.618 457.738 295.618Z" fill="#263238" stroke="#263238" stroke-width="1.34035" stroke-miterlimit="10"/>
<path d="M434.176 284.392C429.791 281.696 425.903 278.265 422.684 274.248" stroke="white" stroke-width="1.00526" stroke-linecap="round" strokeLinejoin="round"/>
<path d="M481.775 284.153C480.651 284.856 479.499 285.558 478.304 286.134C471.931 289.404 464.869 291.103 457.706 291.091C450.543 291.079 443.487 289.355 437.125 286.064" stroke="white" stroke-width="1.00526" stroke-linecap="round" strokeLinejoin="round"/>
<path d="M468.012 202.258C474.381 203.735 480.351 206.587 485.503 210.613C490.656 214.639 494.866 219.742 497.839 225.566C502.05 233.773 503.635 243.077 502.378 252.215C501.122 261.354 497.084 269.885 490.814 276.65" stroke="white" stroke-width="1.00526" stroke-linecap="round" strokeLinejoin="round"/>
<path d="M451.32 201.527C454.316 201.093 457.347 200.966 460.368 201.148" stroke="white" stroke-width="1.00526" stroke-linecap="round" strokeLinejoin="round"/>
<path d="M422.68 274.249C420.781 271.872 419.124 269.312 417.734 266.606C415.034 261.348 413.398 255.609 412.918 249.717C412.438 243.826 413.125 237.898 414.939 232.272C416.753 226.647 419.658 221.434 423.489 216.932C427.319 212.431 432 208.729 437.263 206.038C440.719 204.268 444.388 202.951 448.18 202.118" stroke="white" stroke-width="1.00526" stroke-linecap="round" strokeLinejoin="round"/>
<path d="M457.734 223.81C464.998 223.81 465.855 223.81 468.721 223.965C470.444 223.986 472.15 224.304 473.765 224.906C474.934 225.362 475.996 226.056 476.884 226.944C477.771 227.831 478.465 228.893 478.921 230.062C479.518 231.678 479.831 233.384 479.849 235.106C479.975 237.916 480.003 238.829 480.003 246.079C480.003 253.328 480.003 254.185 479.849 257.051C479.831 258.774 479.518 260.48 478.921 262.095C478.471 263.268 477.779 264.333 476.891 265.221C476.003 266.11 474.938 266.801 473.765 267.251C472.15 267.853 470.444 268.171 468.721 268.193C465.911 268.319 464.998 268.347 457.734 268.347C450.471 268.347 449.628 268.347 446.762 268.193C445.039 268.171 443.333 267.853 441.718 267.251C440.543 266.814 439.478 266.123 438.599 265.228C437.727 264.341 437.065 263.271 436.66 262.095C436.064 260.48 435.75 258.774 435.733 257.051C435.592 254.242 435.564 253.328 435.564 246.079C435.564 238.829 435.564 237.972 435.733 235.106C435.75 233.384 436.064 231.678 436.66 230.062C437.094 228.881 437.79 227.815 438.697 226.943C439.572 226.04 440.638 225.344 441.816 224.906C443.431 224.304 445.137 223.986 446.86 223.965C449.67 223.838 450.583 223.81 457.833 223.81M457.833 218.921C450.457 218.921 449.544 218.921 446.593 219.075C444.341 219.124 442.114 219.551 440.004 220.34C438.196 221.026 436.557 222.095 435.199 223.473C433.815 224.831 432.745 226.476 432.066 228.292C431.27 230.4 430.842 232.629 430.801 234.881C430.661 237.775 430.633 238.703 430.633 246.121C430.633 253.539 430.633 254.424 430.801 257.361C430.843 259.618 431.27 261.851 432.066 263.964C432.766 265.766 433.833 267.402 435.199 268.768C436.566 270.135 438.202 271.202 440.004 271.902C442.114 272.691 444.341 273.118 446.593 273.166C449.501 273.293 450.415 273.321 457.833 273.321C465.251 273.321 466.136 273.321 469.073 273.166C471.324 273.117 473.552 272.689 475.662 271.902C477.463 271.202 479.1 270.135 480.466 268.768C481.833 267.402 482.9 265.766 483.6 263.964C484.395 261.851 484.823 259.618 484.864 257.361C485.005 254.466 485.033 253.539 485.033 246.121C485.033 238.703 485.033 237.818 484.864 234.881C484.823 232.629 484.396 230.4 483.6 228.292C482.921 226.476 481.851 224.831 480.467 223.473C479.109 222.095 477.47 221.026 475.662 220.34C473.552 219.553 471.324 219.125 469.073 219.075C466.164 218.949 465.237 218.921 457.833 218.921Z" fill="#7273E9"/>
<path d="M457.736 232.128C454.981 232.147 452.293 232.982 450.012 234.527C447.73 236.072 445.958 238.257 444.917 240.808C443.876 243.359 443.614 246.161 444.163 248.861C444.712 251.56 446.049 254.037 448.004 255.978C449.959 257.92 452.445 259.239 455.148 259.769C457.852 260.299 460.652 260.018 463.195 258.959C465.739 257.9 467.912 256.112 469.441 253.82C470.969 251.528 471.785 248.834 471.785 246.079C471.785 242.379 470.315 238.831 467.699 236.214C465.083 233.598 461.534 232.128 457.834 232.128M457.736 255.211C455.943 255.211 454.191 254.68 452.701 253.684C451.211 252.688 450.049 251.273 449.364 249.617C448.678 247.961 448.498 246.139 448.848 244.382C449.198 242.624 450.061 241.009 451.328 239.742C452.595 238.474 454.21 237.611 455.968 237.262C457.726 236.912 459.548 237.091 461.204 237.777C462.859 238.463 464.275 239.625 465.27 241.115C466.266 242.605 466.798 244.357 466.798 246.149C466.8 247.34 466.566 248.519 466.112 249.619C465.657 250.72 464.989 251.719 464.148 252.561C463.306 253.403 462.306 254.071 461.206 254.525C460.105 254.98 458.926 255.213 457.736 255.211Z" fill="#7273E9"/>
<path d="M475.539 231.58C475.539 232.224 475.347 232.855 474.989 233.391C474.631 233.927 474.122 234.344 473.526 234.591C472.931 234.838 472.275 234.902 471.643 234.777C471.011 234.651 470.43 234.34 469.974 233.885C469.518 233.429 469.208 232.848 469.082 232.216C468.956 231.583 469.021 230.928 469.268 230.332C469.514 229.737 469.932 229.228 470.468 228.87C471.004 228.511 471.634 228.32 472.279 228.32C473.144 228.32 473.973 228.664 474.584 229.275C475.195 229.886 475.539 230.715 475.539 231.58Z" fill="#7273E9"/>
<path d="M252.469 476.619C239.33 476.619 226.73 471.4 217.439 462.109C208.149 452.819 202.93 440.219 202.93 427.08C202.93 413.94 208.149 401.339 217.438 392.046C226.728 382.753 239.329 377.531 252.469 377.527C265.608 377.531 278.209 382.753 287.499 392.046C296.789 401.339 302.007 413.94 302.007 427.08C302.007 440.219 296.788 452.819 287.498 462.109C278.207 471.4 265.607 476.619 252.469 476.619Z" fill="#263238" stroke="#263238" stroke-width="1.34035" stroke-miterlimit="10"/>
<path d="M229.129 388.585C233.523 385.903 238.347 384.002 243.389 382.965" stroke="white" stroke-width="1.00526" stroke-linecap="round" strokeLinejoin="round"/>
<path d="M207.653 431.056C207.541 429.75 207.484 428.415 207.484 427.08C207.479 419.916 209.186 412.854 212.463 406.482C215.741 400.111 220.493 394.615 226.325 390.453" stroke="white" stroke-width="1.00526" stroke-linecap="round" strokeLinejoin="round"/>
<path d="M286.804 456.121C282.588 461.119 277.33 465.135 271.399 467.887C265.467 470.639 259.005 472.061 252.467 472.053C243.247 472.054 234.249 469.226 226.689 463.949C219.129 458.673 213.37 451.203 210.191 442.549" stroke="white" stroke-width="1.00526" stroke-linecap="round" strokeLinejoin="round"/>
<path d="M295.068 441.636C294.088 444.496 292.822 447.249 291.289 449.855" stroke="white" stroke-width="1.00526" stroke-linecap="round" strokeLinejoin="round"/>
<path d="M243.398 383.063C246.385 382.451 249.426 382.145 252.474 382.149C264.398 382.149 275.834 386.886 284.265 395.318C292.696 403.749 297.433 415.184 297.433 427.108C297.434 430.992 296.934 434.859 295.944 438.615" stroke="white" stroke-width="1.00526" stroke-linecap="round" strokeLinejoin="round"/>
<path fill-rule="evenodd" clip-rule="evenodd" d="M281.166 441.622C280.576 441.313 279.948 441.086 279.297 440.948C276.245 439.888 273.585 437.929 271.668 435.328C270.569 433.948 269.687 432.408 269.055 430.762C268.921 430.45 268.86 430.112 268.877 429.774C268.895 429.435 268.989 429.105 269.153 428.809C269.846 428.005 270.759 427.424 271.781 427.137C273.073 426.765 274.28 426.145 275.335 425.31C275.54 425.121 275.711 424.897 275.841 424.65C275.879 424.57 275.908 424.485 275.925 424.397C276.008 424.089 275.983 423.762 275.855 423.47C275.575 422.958 275.143 422.545 274.619 422.29C274.297 422.106 273.94 421.994 273.571 421.962C273.202 421.931 272.831 421.98 272.483 422.107C271.869 422.334 271.24 422.517 270.6 422.655C269.899 422.827 269.166 422.827 268.465 422.655C268.465 422.571 268.465 422.402 268.465 422.177C268.465 420.885 268.535 419.564 268.549 418.173C268.682 416.028 268.625 413.874 268.381 411.739C267.614 408.088 265.451 404.882 262.353 402.803C260.167 401.296 257.624 400.39 254.977 400.176C254.078 400.091 253.207 400.063 252.322 400.063C248.703 399.997 245.164 401.123 242.248 403.267C240.097 404.955 238.406 407.159 237.331 409.673C236.499 412.193 236.225 414.863 236.53 417.499C236.697 419.208 236.739 420.926 236.657 422.641C236.66 422.678 236.66 422.716 236.657 422.753C235.82 422.9 234.964 422.9 234.128 422.753C233.538 422.655 232.905 422.416 232.189 422.219C231.863 422.15 231.526 422.152 231.202 422.225C230.877 422.298 230.571 422.44 230.306 422.641C230.018 422.792 229.772 423.012 229.59 423.282C229.409 423.552 229.297 423.863 229.266 424.186C229.26 424.238 229.26 424.29 229.266 424.341C229.359 424.754 229.587 425.125 229.913 425.395C230.194 425.62 230.433 425.774 230.573 425.886C231.831 426.607 233.164 427.187 234.549 427.615C234.952 427.744 235.321 427.963 235.627 428.255C235.934 428.547 236.17 428.904 236.319 429.301C236.435 430.365 236.193 431.438 235.631 432.349C234.218 435.112 232.142 437.483 229.59 439.248C228.24 440.169 226.744 440.853 225.164 441.271C224.546 441.374 223.987 441.699 223.59 442.184L223.506 442.367C223.451 442.579 223.446 442.802 223.493 443.017C223.539 443.231 223.635 443.432 223.773 443.603C223.953 443.822 224.178 443.999 224.433 444.123C225.728 444.783 227.109 445.256 228.536 445.528C229.406 445.657 230.263 445.869 231.093 446.16C231.093 446.16 231.191 446.455 231.36 446.862C231.599 447.579 231.711 448.436 231.978 449.335C232.019 449.458 232.091 449.567 232.187 449.654C232.283 449.74 232.4 449.799 232.526 449.827C232.852 449.923 233.201 449.898 233.509 449.757H233.594C235.709 449.239 237.908 449.158 240.057 449.518C242.215 450.342 244.256 451.447 246.126 452.805C247.557 453.813 249.229 454.424 250.973 454.576C252.341 454.632 253.711 454.604 255.076 454.491C256.223 454.37 257.327 453.991 258.307 453.381C260.499 452.131 262.438 450.642 264.573 449.7C265.396 449.496 266.241 449.397 267.088 449.405C268.862 449.354 270.638 449.443 272.399 449.672H272.567C272.803 449.637 273.018 449.517 273.171 449.335C273.27 449.229 273.337 449.098 273.368 448.956C273.368 448.787 273.466 448.703 273.368 448.843C273.376 448.797 273.376 448.75 273.368 448.703C273.535 447.775 273.878 446.888 274.38 446.09C274.691 445.846 275.081 445.726 275.476 445.753H275.574C277.019 445.52 278.433 445.124 279.789 444.572C280.457 444.357 281.051 443.958 281.503 443.42C281.6 443.287 281.667 443.134 281.702 442.972C281.736 442.811 281.736 442.644 281.701 442.482C281.667 442.321 281.599 442.168 281.502 442.034C281.405 441.901 281.281 441.789 281.138 441.706L281.166 441.622Z" fill="#7273E9"/>
<path d="M50.2998 295.618C43.7907 295.623 37.3443 294.346 31.3291 291.859C25.3139 289.372 19.8478 285.724 15.2432 281.123C10.6387 276.522 6.98589 271.059 4.4937 265.046C2.0015 259.033 0.718748 252.588 0.71875 246.079C0.718748 239.57 2.0015 233.125 4.4937 227.111C6.98589 221.098 10.6387 215.635 15.2432 211.035C19.8478 206.434 25.3139 202.786 31.3291 200.299C37.3443 197.812 43.7907 196.535 50.2998 196.54C63.4383 196.54 76.0387 201.759 85.329 211.05C94.6194 220.34 99.8386 232.94 99.8386 246.079C99.8386 259.217 94.6194 271.818 85.329 281.108C76.0387 290.398 63.4383 295.618 50.2998 295.618Z" fill="#263238" stroke="#263238" stroke-width="1.34035" stroke-miterlimit="10"/>
<path d="M26.918 207.598C31.3109 204.915 36.1358 203.014 41.1783 201.979" stroke="white" stroke-width="1.00526" stroke-linecap="round" strokeLinejoin="round"/>
<path d="M5.42251 250.069C5.31011 248.748 5.25392 247.427 5.25392 246.078C5.24862 238.914 6.95573 231.852 10.233 225.48C13.5102 219.109 18.2627 213.613 24.0944 209.451" stroke="white" stroke-width="1.00526" stroke-linecap="round" strokeLinejoin="round"/>
<path d="M84.5976 275.161C80.38 280.146 75.1273 284.152 69.2048 286.901C63.2822 289.65 56.832 291.076 50.3026 291.079C41.0807 291.091 32.0783 288.266 24.516 282.989C16.9537 277.711 11.1974 270.235 8.02734 261.575" stroke="white" stroke-width="1.00526" stroke-linecap="round" strokeLinejoin="round"/>
<path d="M92.8379 260.635C91.8664 263.503 90.5999 266.262 89.0586 268.868" stroke="white" stroke-width="1.00526" stroke-linecap="round" strokeLinejoin="round"/>
<path d="M41.1875 201.991C44.1741 201.38 47.2151 201.074 50.2635 201.078C62.1873 201.078 73.6227 205.815 82.0541 214.246C90.4855 222.678 95.2222 234.113 95.2222 246.037C95.2249 249.921 94.7243 253.788 93.733 257.543" stroke="white" stroke-width="1.00526" stroke-linecap="round" strokeLinejoin="round"/>
<path d="M23.8555 262.658C28.8069 265.847 34.5728 267.54 40.4621 267.534C60.567 267.534 71.9191 250.548 71.2447 235.318C73.3597 233.777 75.1861 231.874 76.6398 229.698C74.6645 230.566 72.5721 231.139 70.4299 231.398C72.6898 230.049 74.3786 227.92 75.1786 225.413C73.0523 226.668 70.7297 227.556 68.3084 228.04C66.68 226.302 64.5242 225.149 62.1747 224.76C59.8251 224.371 57.4127 224.766 55.3107 225.886C53.2088 227.006 51.5345 228.787 50.5468 230.954C49.5592 233.122 49.3133 235.554 49.8472 237.875C45.5417 237.66 41.3299 236.54 37.4858 234.589C33.6418 232.638 30.2518 229.899 27.5365 226.551C26.1519 228.937 25.7269 231.76 26.348 234.447C26.969 237.135 28.5894 239.486 30.8803 241.022C29.1569 240.953 27.4752 240.471 25.977 239.617C25.9432 242.142 26.7923 244.599 28.3777 246.564C29.963 248.529 32.185 249.878 34.6596 250.379C33.0644 250.808 31.393 250.87 29.7703 250.562C30.4617 252.713 31.8087 254.595 33.6226 255.942C35.4365 257.29 37.6266 258.037 39.886 258.078C37.6473 259.86 35.0787 261.182 32.3277 261.968C29.5767 262.754 26.6975 262.988 23.8555 262.658Z" fill="#7273E9"/>
<path d="M252.469 103.125C239.33 103.125 226.73 97.9053 217.439 88.615C208.149 79.3246 202.93 66.7242 202.93 53.5857C202.93 40.4472 208.149 27.8468 217.439 18.5565C226.73 9.26612 239.33 4.04688 252.469 4.04688C265.607 4.04688 278.207 9.26612 287.498 18.5565C296.788 27.8468 302.007 40.4472 302.007 53.5857C302.007 66.7242 296.788 79.3246 287.498 88.615C278.207 97.9053 265.607 103.125 252.469 103.125Z" fill="#263238" stroke="#263238" stroke-width="1.34035" stroke-miterlimit="10"/>
<path fill-rule="evenodd" clip-rule="evenodd" d="M281.013 52.3775C281.077 45.2977 278.325 38.4828 273.364 33.4319C268.402 28.3809 261.638 25.5078 254.558 25.4444C247.478 25.3811 240.663 28.1328 235.612 33.0941C230.561 38.0554 227.688 44.8201 227.625 51.8998C227.625 52.2791 227.625 52.6725 227.625 53.0519C227.623 57.877 228.945 62.6102 231.446 66.7362L226.684 80.9965L241.464 76.2899C245.513 78.5183 250.072 79.6572 254.693 79.5949C259.315 79.5327 263.841 78.2716 267.829 75.9349C271.817 73.5982 275.13 70.2662 277.443 66.2648C279.757 62.2635 280.992 57.73 281.027 53.1081C281.027 52.8973 281.027 52.6023 281.013 52.3775ZM254.319 75.3205C249.933 75.3313 245.641 74.0458 241.984 71.6254L233.357 74.4353L236.167 66.1601C233.409 62.3688 231.932 57.7964 231.952 53.1081C231.952 52.3915 231.952 51.7031 232.065 50.9585C232.731 45.4699 235.398 40.4196 239.553 36.7729C243.709 33.1263 249.063 31.1391 254.592 31.1912C260.121 31.2434 265.436 33.3312 269.522 37.0557C273.609 40.7801 276.179 45.8798 276.742 51.38C276.798 51.9607 276.827 52.5367 276.827 53.1081C276.797 59.0415 274.412 64.7202 270.197 68.896C265.982 73.0718 260.281 75.4028 254.347 75.3767L254.319 75.3205Z" fill="#7273E9"/>
<path fill-rule="evenodd" clip-rule="evenodd" d="M266.578 58.4048C265.918 58.0816 262.714 56.5081 262.11 56.2973C261.506 56.0866 261.071 55.9742 260.705 56.6205C260.34 57.2668 259.005 58.7279 258.64 59.1494C258.275 59.5709 257.867 59.6411 257.235 59.318C255.307 58.559 253.528 57.4651 251.98 56.0866C250.547 54.7863 249.32 53.275 248.342 51.6048C247.976 50.9585 248.342 50.6073 248.637 50.2841C248.932 49.961 249.283 49.5254 249.62 49.1461L249.859 48.837C249.999 48.5982 250.112 48.3734 250.266 48.0643C250.361 47.8896 250.411 47.694 250.411 47.4953C250.411 47.2965 250.361 47.101 250.266 46.9263C250.098 46.6031 248.861 43.3998 248.243 42.1073C247.625 40.8147 247.147 41.0254 246.838 41.0254C246.529 41.0254 246.023 41.0254 245.588 41.0254C245.255 41.032 244.926 41.1078 244.624 41.2481C244.322 41.3884 244.052 41.5901 243.832 41.8403C243.098 42.5345 242.516 43.374 242.124 44.3053C241.732 45.2365 241.539 46.2392 241.556 47.2494C241.561 48.0017 241.675 48.7492 241.893 49.4692C242.401 51.0927 243.191 52.6145 244.225 53.9651C244.548 54.3866 248.749 61.1585 255.465 63.7998C262.18 66.4411 262.11 65.5139 263.319 65.4015C264.229 65.2294 265.094 64.8662 265.854 64.3359C266.614 63.8055 267.254 63.12 267.73 62.3246C268.163 61.3554 268.295 60.2788 268.109 59.2337C267.674 58.8965 267.238 58.7279 266.578 58.4048Z" fill="#7273E9"/>
<path d="M229.129 15.0896C233.523 12.408 238.347 10.5067 243.389 9.46973" stroke="white" stroke-width="1.00526" stroke-linecap="round" strokeLinejoin="round"/>
<path d="M207.653 57.5613C207.541 56.2547 207.484 54.92 207.484 53.5853C207.479 46.4206 209.186 39.3584 212.463 32.9872C215.741 26.616 220.493 21.1202 226.325 16.958" stroke="white" stroke-width="1.00526" stroke-linecap="round" strokeLinejoin="round"/>
<path d="M286.804 82.668C282.585 87.6623 277.327 91.6746 271.395 94.4242C265.464 97.1738 259.004 98.5942 252.467 98.5862C243.247 98.5876 234.249 95.7591 226.689 90.4827C219.129 85.2062 213.37 77.7363 210.191 69.082" stroke="white" stroke-width="1.00526" stroke-linecap="round" strokeLinejoin="round"/>
<path d="M295.068 68.1416C294.086 71.0048 292.819 73.7628 291.289 76.3747" stroke="white" stroke-width="1.00526" stroke-linecap="round" strokeLinejoin="round"/>
<path d="M243.398 9.49823C246.385 8.8869 249.426 8.58092 252.474 8.585C264.398 8.585 275.834 13.3217 284.265 21.7531C292.696 30.1845 297.433 41.6199 297.433 53.5437C297.434 57.4274 296.934 61.2949 295.944 65.0503" stroke="white" stroke-width="1.00526" stroke-linecap="round" strokeLinejoin="round"/>
<path d="M355.441 391.436C387.976 391.436 414.351 365.061 414.351 332.526C414.351 299.991 387.976 273.616 355.441 273.616C322.906 273.616 296.531 299.991 296.531 332.526C296.531 365.061 322.906 391.436 355.441 391.436Z" fill="#7273E9" stroke="#263238" stroke-width="1.34035" stroke-miterlimit="10"/>
<path opacity="0.3" d="M355.441 391.436C387.976 391.436 414.351 365.061 414.351 332.526C414.351 299.991 387.976 273.616 355.441 273.616C322.906 273.616 296.531 299.991 296.531 332.526C296.531 365.061 322.906 391.436 355.441 391.436Z" fill="white" stroke="#263238" stroke-width="1.34035" stroke-miterlimit="10"/>
<path d="M355.442 273.617C355.442 273.617 325.643 270.385 320.894 285.123C316.145 299.861 336.18 297.248 333.019 304.09C329.858 310.932 316.679 319.84 321.948 329.899C327.216 339.959 336.7 350.974 326.163 347.293C315.625 343.612 312.998 342.544 315.106 354.135C317.213 365.726 328.27 368.887 346.183 367.299C364.096 365.712 362.509 374.156 372.512 375.209C382.515 376.263 392.533 370.46 392.533 355.708C392.533 340.956 380.422 344.132 391.479 336.756C402.536 329.38 400.443 310.413 397.282 304.624C394.12 298.836 387.798 301.463 387.798 294.087C387.798 286.711 372.596 272.633 355.442 273.617Z" fill="#263238" stroke="#263238" stroke-width="1.34035" stroke-miterlimit="10"/>
<path d="M339.048 280.5C339.048 280.5 328.019 279.025 328.384 286.008C328.749 292.99 347.885 306.604 365.91 306.984C383.936 307.363 385.762 298.147 383.191 296.306" stroke="white" stroke-width="1.00526" stroke-linecap="round" strokeLinejoin="round"/>
<path d="M350.454 286.346C350.454 286.346 341.631 287.442 342.727 293.37C343.823 299.299 349.344 302.194 357.816 305.509" stroke="white" stroke-width="1.00526" stroke-linecap="round" strokeLinejoin="round"/>
<path d="M394.58 322.383C394.58 322.383 393.849 331.585 382.455 337.472C371.061 343.359 360.79 352.154 370.625 356.594C380.46 361.033 386.08 366.147 382.399 367.257" stroke="white" stroke-width="1.00526" stroke-linecap="round" strokeLinejoin="round"/>
<path d="M338.312 349.598C338.312 349.598 333.901 359.896 327.283 358.027C320.666 356.159 318.446 351.003 322.872 351.003C327.297 351.003 327.649 353.208 327.649 353.208" stroke="white" stroke-width="1.00526" stroke-linecap="round" strokeLinejoin="round"/>
<path d="M373.443 307.448C373.443 307.448 382.477 307.308 381.002 316.131C379.527 324.954 371.069 325.699 368.863 332.316" stroke="white" stroke-width="1.00526" stroke-linecap="round" strokeLinejoin="round"/>
<path d="M355.443 391.493C368.665 391.509 381.504 387.052 391.873 378.848C387.743 375.799 380.381 370.418 376.095 367.609C369.9 363.478 361.638 350.623 350.609 352.913C341.758 354.767 318.071 364.967 309.051 368.929C314.562 375.967 321.604 381.657 329.642 385.566C337.68 389.476 346.504 391.503 355.443 391.493Z" fill="white" stroke="#263238" stroke-width="1.34035" stroke-miterlimit="10"/>
<path d="M348.813 350.974C348.813 350.974 332.488 355.709 330.38 369.407C328.273 383.105 343.811 373.229 343.811 373.229C343.811 373.229 351.974 385.213 359.35 381.532C366.726 377.851 367.78 365.192 363.565 356.762C359.35 348.333 348.813 350.974 348.813 350.974Z" fill="white" stroke="#263238" stroke-width="1.34035" stroke-miterlimit="10"/>
<path d="M348.37 340.914C348.456 345.402 347.845 349.876 346.558 354.177C344.492 360.541 337.763 369.308 343.748 373.242C349.733 377.176 357.404 364.658 359.399 354.149C361.394 343.639 362.841 331.079 362.841 331.079L348.37 340.914Z" fill="white"/>
<mask id="mask0_7835_9655" style="mask-type:luminance" maskUnits="userSpaceOnUse" x="341" y="331" width="22" height="43">
<path d="M348.362 340.915C348.449 345.403 347.837 349.877 346.55 354.178C344.485 360.542 337.755 369.309 343.74 373.243C349.725 377.177 357.396 364.659 359.391 354.15C361.386 343.64 362.833 331.08 362.833 331.08L348.362 340.915Z" fill="white"/>
</mask>
<g mask="url(#mask0_7835_9655)">
<g style="mix-blend-mode:multiply" opacity="0.5">
<path d="M346.977 352.772C348.906 353.471 350.909 353.942 352.948 354.177C354.774 354.388 355.505 353.995 355.758 353.531C355.533 356.158 354.676 363.366 351.683 368.676C350.77 370.306 350.025 371.683 349.435 372.891C353.875 369.899 358.02 361.553 359.424 354.191C361.42 343.696 362.81 331.164 362.81 331.164L348.339 340.999C348.409 344.966 347.951 348.926 346.977 352.772Z" fill="#7273E9"/>
</g>
</g>
<path d="M348.37 340.914C348.456 345.402 347.845 349.876 346.558 354.177C344.492 360.541 337.763 369.308 343.748 373.242C349.733 377.176 357.404 364.658 359.399 354.149C361.394 343.639 362.841 331.079 362.841 331.079L348.37 340.914Z" stroke="#263238" stroke-width="1.34035" stroke-miterlimit="10"/>
<path d="M339.534 300.17C339.534 300.17 334.477 321.244 334.477 329.098C334.477 336.952 341.698 346.562 350.858 347.362C362.548 348.304 366.847 332.596 369.376 323.647C371.567 315.877 373.057 309.162 373.422 307.504C355.649 314.22 339.534 300.17 339.534 300.17Z" fill="white"/>
<mask id="mask1_7835_9655" style="mask-type:luminance" maskUnits="userSpaceOnUse" x="334" y="300" width="40" height="48">
<path d="M339.531 300.171C339.531 300.171 334.473 321.245 334.473 329.099C334.473 336.953 341.694 346.563 350.854 347.363C362.544 348.305 366.843 332.597 369.372 323.648C371.564 315.878 373.053 309.163 373.418 307.505C355.645 314.22 339.531 300.171 339.531 300.171Z" fill="white"/>
</mask>
<g mask="url(#mask1_7835_9655)">
<g style="mix-blend-mode:multiply" opacity="0.5">
<path d="M373.436 307.447C371.669 308.122 369.838 308.617 367.971 308.922C367.142 314.275 364.599 327.44 358.768 335.532C353.823 342.403 348.526 344.889 345.52 345.789C347.194 346.623 349.009 347.138 350.872 347.306C362.562 348.247 366.861 332.54 369.39 323.59" fill="#7273E9"/>
</g>
</g>
<path d="M339.534 300.17C339.534 300.17 334.477 321.244 334.477 329.098C334.477 336.952 341.698 346.562 350.858 347.362C362.548 348.304 366.847 332.596 369.376 323.647C371.567 315.877 373.057 309.162 373.422 307.504C355.649 314.22 339.534 300.17 339.534 300.17Z" stroke="#263238" stroke-width="1.34035" stroke-miterlimit="10"/>
<path d="M349.172 315.091C348.529 317.383 347.518 319.556 346.18 321.526C344.353 323.816 340.447 321.75 341.6 323.127C342.236 323.934 343.033 324.6 343.94 325.083C344.847 325.567 345.844 325.858 346.868 325.937" stroke="#263238" stroke-width="1.34035" stroke-linecap="round" strokeLinejoin="round"/>
<path d="M340.336 330.293C340.336 330.293 343.778 335.351 350.887 332.822" stroke="#263238" stroke-width="1.34035" stroke-linecap="round" strokeLinejoin="round"/>
<path d="M345.831 313.461C345.62 314.711 344.89 315.638 344.201 315.512C343.513 315.385 343.12 314.29 343.33 313.039C343.541 311.789 344.272 310.875 344.96 310.988C345.649 311.1 346.042 312.21 345.831 313.461Z" fill="#263238"/>
<path d="M357.41 316.763C357.101 317.999 356.314 318.87 355.64 318.702C354.966 318.533 354.657 317.409 354.952 316.173C355.247 314.936 356.034 314.079 356.722 314.234C357.41 314.388 357.705 315.54 357.41 316.763Z" fill="#263238"/>
<path d="M341.125 307.279C341.125 307.279 342.966 302.924 348.473 305.453" stroke="#263238" stroke-width="1.34035" stroke-linecap="round" strokeLinejoin="round"/>
<path d="M354.879 309.148C354.879 309.148 359.937 307.546 361.314 312.59" stroke="#263238" stroke-width="1.34035" stroke-linecap="round" strokeLinejoin="round"/>
<path d="M150.379 391.437C182.914 391.437 209.289 365.062 209.289 332.527C209.289 299.992 182.914 273.617 150.379 273.617C117.844 273.617 91.4688 299.992 91.4688 332.527C91.4688 365.062 117.844 391.437 150.379 391.437Z" fill="#7273E9" stroke="#263238" stroke-width="1.34035" stroke-miterlimit="10"/>
<path opacity="0.3" d="M150.379 391.437C182.914 391.437 209.289 365.062 209.289 332.527C209.289 299.992 182.914 273.617 150.379 273.617C117.844 273.617 91.4688 299.992 91.4688 332.527C91.4688 365.062 117.844 391.437 150.379 391.437Z" fill="white" stroke="#263238" stroke-width="1.34035" stroke-miterlimit="10"/>
<path d="M113.523 378.427C125.076 387.734 139.717 392.334 154.517 391.308C169.316 390.281 183.182 383.704 193.339 372.892C186.708 364.35 173.122 349.71 158.004 349.71C141.229 349.71 121.307 369.731 113.523 378.427Z" fill="white" stroke="#263238" stroke-width="1.34035" stroke-miterlimit="10"/>
<path d="M143.856 345.354C143.856 345.354 133.867 346.492 133.01 354.205C132.153 361.919 138.138 374.76 138.714 376.179C139.29 377.598 152.131 364.771 156.978 364.771C161.825 364.771 174.386 371.613 174.386 371.613C174.386 371.613 170.396 355.624 163.258 349.625C156.121 343.626 145.837 343.064 143.856 345.354Z" fill="white" stroke="#263238" stroke-width="1.34035" stroke-miterlimit="10"/>
<path opacity="0.5" d="M130.728 317.03C130.728 317.03 126.443 312.745 124.167 316.173C121.891 319.601 123.872 323.591 126.977 326.162C130.082 328.733 134.971 328.972 134.971 327.019C134.971 325.066 130.728 317.03 130.728 317.03Z" fill="#7273E9" stroke="#263238" stroke-width="1.34035" stroke-miterlimit="10"/>
<path d="M130.728 317.03C130.728 317.03 126.443 312.745 124.167 316.173C121.891 319.601 123.872 323.591 126.977 326.162C130.082 328.733 134.971 328.972 134.971 327.019C134.971 325.066 130.728 317.03 130.728 317.03Z" stroke="#263238" stroke-width="1.34035" stroke-miterlimit="10"/>
<path d="M167.566 307.097C167.566 307.097 169.561 301.955 172.414 307.378C175.266 312.801 169.842 317.648 169.842 317.648L167.566 307.097Z" fill="white" stroke="#263238" stroke-width="1.34035" stroke-miterlimit="10"/>
<path d="M135.008 327.076C135.008 327.076 140.712 347.631 142.145 354.768C143.578 361.905 150.139 372.189 154.986 368.817C159.833 365.446 159.566 359.109 156.7 353.686C154.814 349.937 153.285 346.019 152.134 341.983L135.008 327.076Z" fill="white"/>
<mask id="mask2_7835_9655" style="mask-type:luminance" maskUnits="userSpaceOnUse" x="135" y="327" width="24" height="43">
<path d="M135 327.075C135 327.075 140.704 347.63 142.137 354.767C143.57 361.904 150.131 372.188 154.979 368.817C159.826 365.445 159.559 359.108 156.693 353.685C154.806 349.936 153.277 346.018 152.126 341.982L135 327.075Z" fill="white"/>
</mask>
<g mask="url(#mask2_7835_9655)">
<g style="mix-blend-mode:multiply" opacity="0.5">
<path d="M156.693 353.629C154.806 349.88 153.277 345.962 152.126 341.926L135 327.075C135 327.075 139.679 343.935 141.617 352.364C144.094 354.298 146.91 355.752 149.921 356.65C152.524 357.361 155.3 357.044 157.676 355.764C157.394 355.033 157.065 354.319 156.693 353.629Z" fill="#7273E9"/>
</g>
</g>
<path d="M135.008 327.076C135.008 327.076 140.712 347.631 142.145 354.768C143.578 361.905 150.139 372.189 154.986 368.817C159.833 365.446 159.566 359.109 156.7 353.686C154.814 349.937 153.285 346.019 152.134 341.983L135.008 327.076Z" stroke="#263238" stroke-width="1.34035" stroke-miterlimit="10"/>
<path d="M124.773 305.664C124.773 305.664 138.191 337.978 143.909 345.354C149.627 352.73 164.983 353.348 171.6 342.544C178.218 331.74 170.743 317.143 169.605 310.567C168.467 303.992 165.391 293.16 167.315 291.165C169.24 289.17 177.305 287.737 174.172 282.595C171.038 277.453 166.458 280.024 165.896 276.315C165.334 272.605 168.172 263.459 157.607 262.04C147.042 260.621 128.482 273.167 121.078 282.876C113.674 292.584 111.314 301.379 124.773 305.664Z" fill="#263238" stroke="#263238" stroke-width="1.34035" stroke-miterlimit="10"/>
<path d="M128.985 295.956C128.985 295.956 120.19 295.296 124.601 286.838C129.013 278.38 158.447 266.986 158.812 273.238C159.177 279.49 152.56 281.33 152.56 281.33" stroke="white" stroke-width="1.00526" stroke-linecap="round" strokeLinejoin="round"/>
<path d="M140.811 287.948C140.811 287.948 134.194 286.472 136.399 281.696C138.605 276.919 154.79 274.671 151.854 277.649C150.113 279.394 148.131 280.88 145.967 282.061" stroke="white" stroke-width="1.00526" stroke-linecap="round" strokeLinejoin="round"/>
<path d="M162.123 325.08C162.123 325.08 157.276 332.779 149.562 329.07" stroke="white" stroke-width="1.00526" stroke-linecap="round" strokeLinejoin="round"/>
<path d="M169.557 310.511C168.489 304.372 165.665 294.467 166.944 291.587C166.087 289.521 163.136 284.702 154.426 284.253C143.284 283.677 131.3 289.957 129.01 295.956C126.72 301.955 132.157 298.766 134.152 303.093C136.147 307.42 131.005 312.52 132.157 315.653C133.309 318.787 138.718 331.108 138.718 331.108C139.575 327.68 152.431 321.962 152.431 321.962C154.29 322.453 156.215 322.647 158.135 322.538C160.706 322.257 159.273 319.967 159.273 319.967L172.437 320.753C171.313 316.609 169.979 312.998 169.557 310.511Z" fill="white"/>
<mask id="mask3_7835_9655" style="mask-type:luminance" maskUnits="userSpaceOnUse" x="128" y="284" width="45" height="48">
<path d="M169.561 310.51C168.493 304.371 165.669 294.466 166.948 291.586C166.091 289.52 163.14 284.701 154.43 284.252C143.288 283.676 131.304 289.956 129.014 295.955C126.724 301.954 132.161 298.765 134.156 303.092C136.151 307.419 131.009 312.519 132.161 315.652C133.313 318.786 138.722 331.107 138.722 331.107C139.579 327.679 152.434 321.961 152.434 321.961C154.294 322.452 156.219 322.646 158.139 322.537C160.71 322.256 159.277 319.966 159.277 319.966L172.441 320.752C171.317 316.608 169.982 312.997 169.561 310.51Z" fill="white"/>
</mask>
<g mask="url(#mask3_7835_9655)">
<g style="mix-blend-mode:multiply" opacity="0.5">
<path d="M139.157 298.245C138.624 292.625 134.943 291.515 132.498 291.417C130.98 292.626 129.775 294.183 128.985 295.955C126.709 301.954 132.133 298.765 134.128 303.092C136.123 307.419 130.981 312.519 132.133 315.653C133.285 318.786 138.694 331.107 138.694 331.107C138.975 330.011 140.464 328.677 142.375 327.384C139.565 323.38 136.137 318.505 134.198 315.681C130.545 310.272 139.986 306.956 139.157 298.245Z" fill="#7273E9"/>
</g>
</g>
<path d="M169.557 310.511C168.489 304.372 165.665 294.467 166.944 291.587C166.087 289.521 163.136 284.702 154.426 284.253C143.284 283.677 131.3 289.957 129.01 295.956C126.72 301.955 132.157 298.766 134.152 303.093C136.147 307.42 131.005 312.52 132.157 315.653C133.309 318.787 138.718 331.108 138.718 331.108C139.575 327.68 152.431 321.962 152.431 321.962C154.29 322.453 156.215 322.647 158.135 322.538C160.706 322.257 159.273 319.967 159.273 319.967L172.437 320.753C171.313 316.609 169.979 312.998 169.557 310.511Z" stroke="#263238" stroke-width="1.34035" stroke-miterlimit="10"/>
<path d="M145.365 309.135C145.731 310.722 145.365 312.169 144.649 312.338C143.932 312.507 142.977 311.355 142.626 309.753C142.275 308.151 142.626 306.718 143.342 306.55C144.059 306.381 145.014 307.533 145.365 309.135Z" fill="#263238"/>
<path d="M162.362 305.637C162.727 307.238 162.362 308.671 161.645 308.84C160.929 309.009 159.973 307.856 159.608 306.255C159.243 304.653 159.608 303.22 160.339 303.052C161.069 302.883 161.997 304.035 162.362 305.637Z" fill="#263238"/>
<path d="M138.715 301.659C138.715 301.659 139.853 295.379 146.428 297.95" stroke="#263238" stroke-width="1.34035" stroke-linecap="round" strokeLinejoin="round"/>
<path d="M164.107 295.099C159.246 291.952 157.532 296.504 157.532 296.504C157.532 296.504 154.455 299.876 155.705 306.1" stroke="#263238" stroke-width="1.34035" stroke-linecap="round" strokeLinejoin="round"/>
<path d="M139.578 318.506L147.853 315.092" stroke="#263238" stroke-width="0.670173" stroke-linecap="round" strokeLinejoin="round"/>
<path d="M159.57 312.52L166.412 311.944" stroke="#263238" stroke-width="0.670173" stroke-linecap="round" strokeLinejoin="round"/>
<path d="M369.222 206.361C400.854 198.749 420.327 166.935 412.715 135.303C405.103 103.671 373.29 84.1988 341.658 91.8105C310.026 99.4223 290.553 131.236 298.165 162.868C305.777 194.5 337.59 213.972 369.222 206.361Z" fill="#7273E9" stroke="#263238" stroke-width="1.34035" stroke-miterlimit="10"/>
<path opacity="0.3" d="M369.222 206.361C400.854 198.749 420.327 166.935 412.715 135.303C405.103 103.671 373.29 84.1988 341.658 91.8105C310.026 99.4223 290.553 131.236 298.165 162.868C305.777 194.5 337.59 213.972 369.222 206.361Z" fill="white" stroke="#263238" stroke-width="1.34035" stroke-miterlimit="10"/>
<path d="M405.761 137.358C413.697 115.962 402.072 91.9196 379.796 83.6572C357.519 75.3949 333.028 86.0418 325.092 107.438C317.156 128.834 328.781 152.877 351.057 161.139C373.334 169.401 397.826 158.754 405.761 137.358Z" fill="#263238" stroke="#263238" stroke-width="1.34035" stroke-miterlimit="10"/>
<path d="M405.447 114.211C407.395 121.172 407.268 128.55 405.082 135.44" stroke="white" stroke-width="1.00526" stroke-linecap="round" strokeLinejoin="round"/>
<path d="M402.474 141.017C402.474 141.017 399.86 144.374 398.371 146.243" stroke="white" stroke-width="1.00526" stroke-linecap="round" strokeLinejoin="round"/>
<path d="M341.38 96.3252C341.38 96.3252 335.423 103.35 339.146 111.976" stroke="white" stroke-width="1.00526" stroke-linecap="round" strokeLinejoin="round"/>
<path d="M355.445 208.006C366.3 208.025 376.948 205.029 386.2 199.351C379.329 193.015 361.444 177.237 353.015 176.549C344.191 175.832 318.439 184.079 310.191 186.819C315.716 193.457 322.634 198.797 330.456 202.459C338.277 206.121 346.809 208.014 355.445 208.006Z" fill="white" stroke="#263238" stroke-width="1.34035" stroke-miterlimit="10"/>
<path d="M364.146 183.98C364.385 183.278 364.595 182.576 364.82 181.999C360.296 178.993 356.039 176.801 353.019 176.548C349.351 176.51 345.693 176.93 342.13 177.799C340.571 182.014 340.163 186.228 338.899 193.408C337.185 203.116 339.756 205.968 346.893 202.259C354.03 198.55 361.294 192.537 364.146 183.98Z" fill="white" stroke="#263238" stroke-width="1.34035" stroke-miterlimit="10"/>
<path d="M347.019 165.983C347.019 165.983 348.734 169.13 346.738 176.549C344.743 183.967 339.714 196.218 342.046 198.55C344.378 200.883 358.442 190.261 359.004 182.267C359.566 174.273 359.58 158.284 359.58 158.284L347.019 165.983Z" fill="white"/>
<mask id="mask4_7835_9655" style="mask-type:luminance" maskUnits="userSpaceOnUse" x="341" y="158" width="19" height="41">
<path d="M347.012 165.984C347.012 165.984 348.726 169.131 346.731 176.55C344.736 183.968 339.706 196.219 342.038 198.551C344.37 200.884 358.434 190.262 358.996 182.268C359.558 174.274 359.572 158.285 359.572 158.285L347.012 165.984Z" fill="white"/>
</mask>
<g mask="url(#mask4_7835_9655)">
<g style="mix-blend-mode:multiply" opacity="0.5">
<path d="M347.676 170.789L356.696 177.813L356.007 189.053C357.606 187.102 358.641 184.75 359 182.253C359.576 174.259 359.576 158.271 359.576 158.271L347.016 165.97C347.626 167.498 347.853 169.153 347.676 170.789Z" fill="#7273E9"/>
</g>
</g>
<path d="M347.019 165.983C347.019 165.983 348.734 169.13 346.738 176.549C344.743 183.967 339.714 196.218 342.046 198.55C344.378 200.883 358.442 190.261 359.004 182.267C359.566 174.273 359.58 158.284 359.58 158.284L347.019 165.983Z" stroke="#263238" stroke-width="1.34035" stroke-miterlimit="10"/>
<path d="M332.696 130.874C332.696 130.874 330.701 125.732 328.129 129.469C325.558 133.206 328.691 137.744 330.124 137.744C331.558 137.744 332.696 130.874 332.696 130.874Z" fill="white" stroke="#263238" stroke-width="1.34035" stroke-miterlimit="10"/>
<path d="M339.298 114.31C339.298 114.31 331.022 130.579 329.027 141.72C327.032 152.862 335.308 169.693 343.583 169.693C351.858 169.693 364.657 156.852 364.657 156.852C364.657 156.852 376.641 157.133 378.355 153.143C380.07 149.153 378.074 146.005 374.927 146.005H368.647C368.647 146.005 366.933 146.862 367.79 138.868C368.647 130.874 371.218 127.165 371.218 127.165C371.218 127.165 349.554 128.865 339.298 114.31Z" fill="white"/>
<mask id="mask5_7835_9655" style="mask-type:luminance" maskUnits="userSpaceOnUse" x="328" y="114" width="51" height="56">
<path d="M339.298 114.31C339.298 114.31 331.022 130.579 329.027 141.72C327.032 152.862 335.308 169.693 343.583 169.693C351.858 169.693 364.657 156.852 364.657 156.852C364.657 156.852 376.641 157.133 378.355 153.143C380.07 149.153 378.074 146.005 374.927 146.005H368.647C368.647 146.005 366.933 146.862 367.79 138.868C368.647 130.874 371.218 127.165 371.218 127.165C371.218 127.165 349.554 128.865 339.298 114.31Z" fill="white"/>
</mask>
<g mask="url(#mask5_7835_9655)">
<g style="mix-blend-mode:multiply" opacity="0.5">
<path d="M361.249 151.695C359.512 156.112 356.656 160.001 352.961 162.979C349.266 165.957 344.859 167.922 340.174 168.681H340.09C341.17 169.312 342.394 169.655 343.644 169.678C351.92 169.678 364.719 156.837 364.719 156.837C364.719 156.837 376.703 157.118 378.417 153.128C380.131 149.138 378.136 145.991 374.989 145.991H368.709C368.709 145.991 366.995 146.848 367.852 138.854C368.709 130.859 371.28 127.15 371.28 127.15C371.28 127.15 369.875 127.249 367.557 127.15H367.458" fill="#7273E9"/>
</g>
</g>
<path d="M339.298 114.31C339.298 114.31 331.022 130.579 329.027 141.72C327.032 152.862 335.308 169.693 343.583 169.693C351.858 169.693 364.657 156.852 364.657 156.852C364.657 156.852 376.641 157.133 378.355 153.143C380.07 149.153 378.074 146.005 374.927 146.005H368.647C368.647 146.005 366.933 146.862 367.79 138.868C368.647 130.874 371.218 127.165 371.218 127.165C371.218 127.165 349.554 128.865 339.298 114.31Z" stroke="#263238" stroke-width="1.34035" stroke-miterlimit="10"/>
<path d="M340.824 132.517C340.486 134.007 339.784 135.116 339.264 135.004C338.744 134.892 338.604 133.599 338.941 132.082C339.278 130.564 339.981 129.483 340.5 129.595C341.02 129.707 341.133 131.014 340.824 132.517Z" fill="#263238"/>
<path d="M354.238 138.502C353.9 139.991 353.198 141.115 352.678 140.989C352.158 140.862 352.018 139.584 352.355 138.081C352.692 136.577 353.395 135.467 353.914 135.594C354.434 135.72 354.575 137.013 354.238 138.502Z" fill="#263238"/>
<path d="M343.015 136.297C343.015 136.297 336.735 140.863 337.592 142.001C339.936 144.017 342.816 145.306 345.881 145.71C348.452 145.71 347.876 142.577 347.876 142.577" stroke="#263238" stroke-width="1.34035" stroke-linecap="round" strokeLinejoin="round"/>
<path d="M338.445 149.432C341.585 151.144 345.178 151.841 348.73 151.427C350.195 151.284 351.606 150.795 352.846 150.001C354.087 149.208 355.122 148.132 355.867 146.861" stroke="#263238" stroke-width="1.34035" stroke-linecap="round" strokeLinejoin="round"/>
<path d="M339.023 125.731C339.023 125.731 340.737 122.022 344.166 126.307" stroke="#263238" stroke-width="1.34035" stroke-linecap="round" strokeLinejoin="round"/>
<path d="M353.578 130.873C353.578 130.873 359.296 129.159 359.296 134.863" stroke="#263238" stroke-width="1.34035" stroke-linecap="round" strokeLinejoin="round"/>
<path d="M159.938 207.229C192.041 201.949 213.786 171.644 208.506 139.54C203.226 107.436 172.92 85.6914 140.816 90.9716C108.713 96.2518 86.968 126.557 92.2482 158.661C97.5284 190.765 127.834 212.51 159.938 207.229Z" fill="#7273E9" stroke="#263238" stroke-width="1.34035" stroke-miterlimit="10"/>
<path opacity="0.3" d="M159.938 207.229C192.041 201.949 213.786 171.644 208.506 139.54C203.226 107.436 172.92 85.6914 140.816 90.9716C108.713 96.2518 86.968 126.557 92.2482 158.661C97.5284 190.765 127.834 212.51 159.938 207.229Z" fill="white" stroke="#263238" stroke-width="1.34035" stroke-miterlimit="10"/>
<path d="M109.845 178.979C108.833 183.011 104.225 182.449 105.63 187.409C115.043 198.428 128.19 205.589 142.554 207.52C156.918 209.451 171.489 206.017 183.479 197.876C187.694 192.888 190.222 187.647 190.335 183.433C190.714 170.563 177.114 160.953 176.384 154.757C175.653 148.561 181.526 134.554 181.526 134.554C181.526 134.554 191.81 133.079 195.491 123.904C199.172 114.73 185.179 94.0912 172.675 87.8391C160.17 81.5871 139.237 87.1086 128.952 102.17C118.668 117.231 131.158 130.466 124.541 137.448C117.923 144.431 100.656 144.796 98.8159 158.761C96.9754 172.727 110.941 174.567 109.845 178.979Z" fill="#263238" stroke="#263238" stroke-width="1.34035" stroke-miterlimit="10"/>
<path d="M172.712 101.847C172.712 101.847 176.435 110.965 161.936 116.346C147.437 121.727 136.253 118.833 132.516 128.358C128.779 137.884 131.687 144.529 132.109 149.433C132.53 154.336 120.869 153.563 113.844 159.787C106.82 166.011 120.869 173.457 124.62 177.602C128.372 181.747 127.515 187.957 120.883 190.036" stroke="white" stroke-width="1.00526" stroke-linecap="round" strokeLinejoin="round"/>
<path d="M128.789 120.912C128.789 120.912 134.17 107.649 142.459 105.57C150.749 103.49 159.867 109.714 166.077 103.912C172.287 98.1094 171.05 93.9788 166.484 90.6631" stroke="white" stroke-width="1.00526" stroke-linecap="round" strokeLinejoin="round"/>
<path d="M178.926 107.228C178.926 107.228 193.439 116.767 188.465 124.228C183.492 131.688 181.834 122.57 181.834 122.57" stroke="white" stroke-width="1.00526" stroke-linecap="round" strokeLinejoin="round"/>
<path d="M118.43 198.577C129.435 205.689 142.498 208.927 155.55 207.776C168.603 206.626 180.899 201.154 190.49 192.227C186.153 188.242 181.553 184.553 176.721 181.184C167.533 174.932 160.185 172.754 155.043 173.091C155.043 173.091 150.997 174.932 143.283 182.279C138.254 187.07 126.171 194.194 118.43 198.577Z" fill="white" stroke="#263238" stroke-width="1.34035" stroke-miterlimit="10"/>
<path d="M168.624 183.194C168.628 180.749 168.278 178.316 167.584 175.972C163.694 174.027 159.387 173.063 155.038 173.162C155.038 173.162 151.821 174.567 145.681 180.187C145.551 181.226 145.486 182.273 145.484 183.32C145.484 192.972 150.655 200.784 157.047 200.784C163.44 200.784 168.624 192.846 168.624 183.194Z" fill="white" stroke="#263238" stroke-width="1.34035" stroke-miterlimit="10"/>
<path d="M152.091 154.35C152.091 154.35 152.091 164.648 150.995 174.202C149.9 183.755 151.361 194.04 158.343 194.77C165.326 195.501 164.216 178.979 163.486 172.361C163.052 168.209 163.052 164.023 163.486 159.871L152.091 154.35Z" fill="white"/>
<mask id="mask6_7835_9655" style="mask-type:luminance" maskUnits="userSpaceOnUse" x="150" y="154" width="15" height="41">
<path d="M152.087 154.351C152.087 154.351 152.087 164.649 150.992 174.203C149.896 183.756 151.357 194.041 158.339 194.771C165.322 195.502 164.212 178.98 163.482 172.362C163.048 168.21 163.048 164.024 163.482 159.872L152.087 154.351Z" fill="white"/>
</mask>
<g mask="url(#mask6_7835_9655)">
<g style="mix-blend-mode:multiply" opacity="0.5">
<path d="M150.773 176.421L163.179 164.395C163.179 164.016 163.179 163.65 163.179 163.313L160.65 158.606L152.038 154.392C152.038 154.392 152.038 164.69 150.942 174.244C150.9 174.932 150.83 175.677 150.773 176.421Z" fill="#7273E9"/>
</g>
</g>
<path d="M152.091 154.35C152.091 154.35 152.091 164.648 150.995 174.202C149.9 183.755 151.361 194.04 158.343 194.77C165.326 195.501 164.216 178.979 163.486 172.361C163.052 168.209 163.052 164.023 163.486 159.871L152.091 154.35Z" stroke="#263238" stroke-width="1.34035" stroke-miterlimit="10"/>
<path d="M177.082 108.422C177.082 108.422 177.812 113.199 165.322 119.086C152.832 124.972 146.58 129.735 145.484 135.243C144.388 140.75 144.009 142.97 144.009 142.97C144.009 142.97 141.438 137.814 136.661 140.385C131.884 142.956 136.296 152.889 140.707 153.254C145.119 153.619 146.215 152.144 146.215 152.144C146.215 152.144 160.545 166.475 168.989 166.475C177.433 166.475 180.749 158.396 182.589 143.995C184.374 130.171 177.082 108.422 177.082 108.422Z" fill="white"/>
<mask id="mask7_7835_9655" style="mask-type:luminance" maskUnits="userSpaceOnUse" x="134" y="108" width="49" height="59">
<path d="M177.082 108.422C177.082 108.422 177.812 113.199 165.322 119.086C152.832 124.972 146.58 129.735 145.484 135.243C144.388 140.75 144.009 142.97 144.009 142.97C144.009 142.97 141.438 137.814 136.661 140.385C131.884 142.956 136.296 152.889 140.707 153.254C145.119 153.619 146.215 152.144 146.215 152.144C146.215 152.144 160.545 166.475 168.989 166.475C177.433 166.475 180.749 158.396 182.589 143.995C184.374 130.171 177.082 108.422 177.082 108.422Z" fill="white"/>
</mask>
<g mask="url(#mask7_7835_9655)">
<g style="mix-blend-mode:multiply" opacity="0.5">
<path d="M149.502 137.897C149.948 133.269 151.595 128.838 154.279 125.042C149.039 128.47 146.187 131.701 145.484 135.242C144.374 140.763 144.009 142.969 144.009 142.969C144.009 142.969 141.438 137.813 136.661 140.384C131.884 142.955 136.296 152.888 140.707 153.254C145.119 153.619 146.215 152.144 146.215 152.144C146.215 152.144 160.545 166.474 168.989 166.474C166.482 165.228 164.126 163.701 161.964 161.922C156.963 158.269 149.095 147.03 149.502 137.897Z" fill="#7273E9"/>
</g>
</g>
<path d="M177.082 108.422C177.082 108.422 177.812 113.199 165.322 119.086C152.832 124.972 146.58 129.735 145.484 135.243C144.388 140.75 144.009 142.97 144.009 142.97C144.009 142.97 141.438 137.814 136.661 140.385C131.884 142.956 136.296 152.889 140.707 153.254C145.119 153.619 146.215 152.144 146.215 152.144C146.215 152.144 160.545 166.475 168.989 166.475C177.433 166.475 180.749 158.396 182.589 143.995C184.374 130.171 177.082 108.422 177.082 108.422Z" stroke="#263238" stroke-width="1.34035" stroke-miterlimit="10"/>
<path d="M174.537 130.718C174.12 131.857 173.947 133.071 174.029 134.281C174.111 135.491 174.447 136.671 175.015 137.743C176.939 141.353 177.909 142.548 177.192 143.517C176.987 143.85 176.718 144.14 176.4 144.369C176.083 144.598 175.723 144.762 175.342 144.852C174.961 144.942 174.566 144.956 174.18 144.894C173.793 144.831 173.423 144.692 173.09 144.486" stroke="#263238" stroke-width="1.34035" stroke-linecap="round" strokeLinejoin="round"/>
<path d="M173.087 153.126C173.087 153.126 166.062 155.782 163.688 150.71" stroke="#263238" stroke-width="1.34035" stroke-linecap="round" strokeLinejoin="round"/>
<path d="M166.108 136.141C166.108 137.672 165.673 138.951 165.139 138.951C164.605 138.951 164.184 137.715 164.184 136.141C164.184 134.567 164.605 133.331 165.139 133.331C165.673 133.331 166.108 134.61 166.108 136.141Z" fill="#263238"/>
<path d="M177.911 135.776C178.446 135.776 178.88 134.537 178.88 133.008C178.88 131.479 178.446 130.24 177.911 130.24C177.375 130.24 176.941 131.479 176.941 133.008C176.941 134.537 177.375 135.776 177.911 135.776Z" fill="#263238"/>
<path d="M159.125 128.078C159.125 128.078 160.53 124.214 166.346 124.944" stroke="#263238" stroke-width="1.34035" stroke-linecap="round" strokeLinejoin="round"/>
<path d="M174.785 124.214C174.785 124.214 176.471 120.125 180.082 123.497" stroke="#263238" stroke-width="1.34035" stroke-linecap="round" strokeLinejoin="round"/>
</svg>
